<svg width="16" height="16" viewBox="0 0 16 16" fill="none" xmlns="http://www.w3.org/2000/svg">
<path d="M16 12.0004C16 12.4719 15.8127 12.9241 15.4793 13.2575C15.1459 13.5909 14.6937 13.7782 14.2222 13.7782H1.77778C1.30628 13.7782 0.854097 13.5909 0.520699 13.2575C0.187301 12.9241 0 12.4719 0 12.0004V4.00043C0 3.52894 0.187301 3.07675 0.520699 2.74336C0.854097 2.40996 1.30628 2.22266 1.77778 2.22266H14.2222C14.6937 2.22266 15.1459 2.40996 15.4793 2.74336C15.8127 3.07675 16 3.52894 16 4.00043V12.0004Z" fill="#009B3A"/>
<path d="M14.5447 7.99913L7.9989 12.9431L1.45312 7.99913L7.9989 3.05469L14.5447 7.99913Z" fill="#FEDF01"/>
<path d="M7.98741 10.8342C9.57259 10.8342 10.8576 9.54915 10.8576 7.96397C10.8576 6.37879 9.57259 5.09375 7.98741 5.09375C6.40223 5.09375 5.11719 6.37879 5.11719 7.96397C5.11719 9.54915 6.40223 10.8342 7.98741 10.8342Z" fill="#002776"/>
<path d="M5.45492 6.61723C5.30584 6.89815 5.20489 7.20206 5.15625 7.51634C6.93181 7.38746 9.34158 8.35679 10.3758 9.55857C10.5545 9.29012 10.6869 8.98968 10.7683 8.6679C9.49181 7.4199 7.24958 6.61012 5.45492 6.61723Z" fill="#CBE9D4"/>
<path d="M5.33203 8.10547H5.77648V8.54991H5.33203V8.10547ZM5.77648 8.99436H6.22092V9.4388H5.77648V8.99436Z" fill="#88C9F9"/>
<path d="M6.66797 8.10373H7.11241V8.54818H6.66797V8.10373ZM7.55686 8.54818H8.0013V8.99262H7.55686V8.54818ZM9.33464 9.43707H9.77908V9.88151H9.33464V9.43707ZM8.0013 9.88151H8.44575V10.326H8.0013V9.88151ZM9.33464 7.21484H9.77908V7.65929H9.33464V7.21484Z" fill="#55ACEE"/>
<path d="M8.44531 8.99219H8.88976V9.43663H8.44531V8.99219Z" fill="#3B88C3"/>
</svg>
