<svg width="16" height="16" viewBox="0 0 16 16" fill="none" xmlns="http://www.w3.org/2000/svg">
<path d="M0 11.9965C0 12.468 0.187301 12.9202 0.520699 13.2536C0.854097 13.587 1.30628 13.7743 1.77778 13.7743H14.2222C14.6937 13.7743 15.1459 13.587 15.4793 13.2536C15.8127 12.9202 16 12.468 16 11.9965V10.2188H0V11.9965Z" fill="#FFCD05"/>
<path d="M0 6.21875H16V10.2188H0V6.21875Z" fill="#ED1F24"/>
<path d="M14.2222 2.21875H1.77778C1.30628 2.21875 0.854097 2.40605 0.520699 2.73945C0.187301 3.07285 0 3.52503 0 3.99653L0 6.21875H16V3.99653C16 3.52503 15.8127 3.07285 15.4793 2.73945C15.1459 2.40605 14.6937 2.21875 14.2222 2.21875Z" fill="#141414"/>
</svg>
