<svg width="316" height="44" viewBox="0 0 316 44" fill="none" xmlns="http://www.w3.org/2000/svg">
<path d="M40.0291 23.7684C40.0291 24.9093 39.0985 25.8363 37.9521 25.8363C36.8066 25.8363 35.875 24.9093 35.875 23.7684V18.0416C35.875 16.8996 36.8056 15.9727 37.9521 15.9727C39.0985 15.9727 40.0291 16.8996 40.0291 18.0416V23.7684Z" fill="#E6E5E5"/>
<path d="M13.0841 10.0859C11.9377 10.0859 11.0071 11.0108 11.0071 12.1538V17.6751V17.8203C11.0071 18.9612 10.0765 19.8881 8.93003 19.8881C8.32595 19.8881 7.78462 19.6307 7.40494 19.2228C7.35708 19.1582 7.30497 19.0968 7.25179 19.0385C7.23478 19.0131 7.21776 18.993 7.20181 18.9675V18.9855C6.72642 18.4887 6.05534 18.1804 5.313 18.1804C3.87193 18.1804 2.70312 19.3436 2.70312 20.779C2.70312 22.2155 3.87193 23.3797 5.313 23.3797C6.05534 23.3797 6.72642 23.0704 7.20181 22.5746V22.5895C7.21776 22.5672 7.23372 22.5439 7.25073 22.5217C7.30497 22.4623 7.35602 22.4019 7.40388 22.3363C7.78249 21.9274 8.32489 21.671 8.92896 21.671C10.0744 21.671 11.006 22.5979 11.006 23.7399V23.9401V29.5674C11.006 30.7083 11.9366 31.6352 13.0831 31.6352C14.2295 31.6352 15.1601 30.7083 15.1601 29.5674V12.1527C15.1601 11.0108 14.2306 10.0859 13.0841 10.0859Z" fill="#E6E5E5"/>
<path d="M28.9717 9.31649C27.8253 9.31649 26.8947 10.2434 26.8947 11.3865V18.4841C26.6799 19.4004 25.8588 20.0816 24.8751 20.0816C23.8913 20.0816 23.0682 19.4004 22.8544 18.4841V5.62466C22.8544 4.48268 21.9249 3.55469 20.7773 3.55469C19.6309 3.55469 18.6992 4.48162 18.6992 5.62466V39.3141C18.6992 40.455 19.6309 41.382 20.7773 41.382C21.9249 41.382 22.8544 40.455 22.8544 39.3141V26.4864C23.0682 25.5712 23.8913 24.89 24.8751 24.89C25.8588 24.89 26.6809 25.5712 26.8947 26.4864V33.4591C26.8947 34.5989 27.8253 35.5269 28.9717 35.5269C30.1172 35.5269 31.0488 34.5989 31.0488 33.4591V11.3854C31.0499 10.2434 30.1182 9.31649 28.9717 9.31649Z" fill="#E6E5E5"/>
<path d="M234.418 30.6321C235.193 29.9128 235.839 28.9223 236.342 27.6882C236.844 26.4667 237.096 25.0525 237.096 23.4847V9.74171C237.096 8.58808 236.253 7.64844 235.094 7.64844C233.934 7.64844 233.091 8.58702 233.091 9.74171V24.3343C233.091 25.2887 232.787 26.1076 232.366 26.8365C231.946 27.5632 231.353 28.1384 230.7 28.5452C230.006 28.9774 229.268 29.3069 228.554 29.524C227.125 29.9615 225.83 29.9615 224.385 29.524C223.67 29.3069 222.949 28.9785 222.253 28.5473C221.589 28.1331 220.926 27.5727 220.501 26.8322C220.079 26.0928 219.74 25.276 219.74 24.3343V9.74171C219.74 8.58808 218.896 7.64844 217.738 7.64844C216.579 7.64844 215.734 8.58702 215.734 9.74171V23.4836C215.734 25.026 216.019 26.4297 216.52 27.6543C217.024 28.8852 217.686 29.88 218.457 30.6109C219.217 31.3323 220.113 31.933 221.102 32.397C222.09 32.8589 223.034 33.1724 223.902 33.3292C225.674 33.6513 227.312 33.6417 228.989 33.3303C229.831 33.1724 230.766 32.8599 231.766 32.398C232.768 31.9351 233.661 31.3398 234.418 30.6321Z" fill="#E6E5E5"/>
<path d="M197.659 7.14844C193.897 7.14844 190.737 8.45038 188.27 11.0193C185.81 13.5776 184.562 16.7207 184.562 20.3617C184.562 24.0048 185.81 27.149 188.27 29.7084C190.738 32.2773 193.897 33.5792 197.659 33.5792C201.415 33.5792 204.628 32.2741 207.209 29.6999C209.788 27.1257 211.095 23.9836 211.095 20.3617C211.095 16.7419 209.787 13.6009 207.209 11.0257C204.628 8.45356 201.415 7.14844 197.659 7.14844ZM204.211 27.0928C202.417 28.9562 200.271 29.863 197.65 29.863C195.035 29.863 192.95 28.9658 191.276 27.1214C189.588 25.2654 188.768 23.0535 188.768 20.3607C188.768 17.671 189.589 15.4612 191.279 13.6041C192.95 11.7608 195.035 10.8636 197.65 10.8636C200.269 10.8636 202.415 11.7693 204.211 13.6306C206.014 15.5004 206.89 17.7027 206.89 20.3607C206.89 23.0249 206.014 25.2273 204.211 27.0928Z" fill="#E6E5E5"/>
<path d="M165.681 31.2561C166.046 31.5474 166.431 31.8112 166.825 32.0411C168.528 33.0623 170.323 33.5792 172.163 33.5792C174.379 33.5792 176.373 32.8769 178.087 31.4902C179.834 30.0802 180.72 28.2984 180.72 26.1956C180.72 25.4731 180.652 24.8078 180.517 24.2199C180.387 23.6595 180.129 23.0885 179.748 22.5249C179.476 22.1224 179.23 21.7759 179.01 21.491C178.727 21.1234 178.285 20.7431 177.655 20.3246L176.385 19.4835C176.08 19.2759 175.541 18.9623 174.737 18.5237L173.185 17.6805C173.123 17.6402 173.036 17.5809 172.044 17.0756C171.263 16.6773 170.949 16.4739 170.831 16.3892L169.831 15.6158C169.472 15.3436 169.22 15.0554 169.082 14.7641C168.938 14.4633 168.869 14.138 168.869 13.7715C168.869 12.87 169.241 12.1867 170.007 11.6835C170.845 11.1327 171.777 10.8646 172.853 10.8646C173.856 10.8752 174.981 11.2068 176.201 11.852C176.322 11.9166 176.413 11.9642 176.504 12.0183C176.799 12.1856 177.134 12.2757 177.47 12.2757C178.224 12.2757 178.917 11.8329 179.237 11.1485C179.658 10.2449 179.324 9.1718 178.46 8.65483C178.207 8.50229 177.968 8.37517 177.746 8.27876C176.129 7.52768 174.489 7.14844 172.865 7.14844C170.737 7.14844 168.83 7.75545 167.199 8.95357C165.518 10.1877 164.664 11.8085 164.664 13.7715C164.664 15.0957 165.118 16.2875 166.014 17.315C166.862 18.2917 167.911 19.118 169.13 19.7727L172.628 21.5884C173.733 22.1435 174.682 22.8353 175.446 23.6446C176.114 24.3512 176.463 25.115 176.512 25.9805C176.581 27.1585 175.962 28.3704 174.936 29.0664C174.146 29.6024 173.24 29.863 172.167 29.863C171.213 29.863 170.017 29.398 168.613 28.4816C168.432 28.3683 168.247 28.2454 168.061 28.114C167.737 27.8863 167.355 27.7655 166.957 27.7655C166.187 27.7655 165.481 28.2168 165.158 28.916C164.773 29.7401 164.989 30.702 165.681 31.2561Z" fill="#E6E5E5"/>
<path d="M295.038 31.2508C295.394 31.5389 295.779 31.8027 296.183 32.0379C297.885 33.0591 299.679 33.5761 301.52 33.5761C303.737 33.5761 305.73 32.8737 307.443 31.4891C309.191 30.077 310.078 28.2952 310.078 26.1934C310.078 25.4741 310.009 24.8068 309.873 24.2103C309.743 23.6531 309.485 23.0864 309.106 22.526C308.835 22.1224 308.589 21.7738 308.369 21.4878C308.094 21.1276 307.65 20.7463 307.014 20.3225L305.744 19.4803C305.443 19.2769 304.905 18.9634 304.096 18.5206L302.544 17.6805C302.481 17.6392 302.391 17.5777 301.401 17.0735C300.602 16.6635 300.299 16.4665 300.19 16.386L299.19 15.6148C298.832 15.3415 298.578 15.0554 298.441 14.7652C298.298 14.4601 298.229 14.1349 298.229 13.7704C298.229 12.8668 298.601 12.1835 299.367 11.6825C300.205 11.1327 301.136 10.8646 302.213 10.8646C303.215 10.8742 304.341 11.2057 305.562 11.8509C305.643 11.8943 305.724 11.9388 305.805 11.9844C306.952 12.6359 308.137 12.138 308.597 11.1485C309.017 10.2439 308.683 9.1718 307.819 8.65483C307.569 8.50441 307.322 8.37411 307.105 8.27771C305.489 7.52768 303.849 7.14844 302.224 7.14844C300.095 7.14844 298.189 7.75545 296.559 8.95357C294.876 10.1877 294.023 11.8085 294.023 13.7715C294.023 15.0946 294.478 16.2875 295.373 17.3161C296.223 18.2928 297.271 19.1191 298.49 19.7727L301.987 21.5884C303.09 22.1425 304.04 22.8353 304.805 23.6457C305.471 24.3523 305.82 25.115 305.871 25.9805C305.938 27.1606 305.319 28.3725 304.295 29.0675C303.505 29.6035 302.599 29.8641 301.526 29.8641C300.572 29.8641 299.375 29.399 297.97 28.4838C297.79 28.3715 297.605 28.2486 297.419 28.1172C297.095 27.8884 296.714 27.7666 296.315 27.7666C295.544 27.7666 294.838 28.2179 294.516 28.917C294.129 29.7359 294.346 30.6967 295.038 31.2508Z" fill="#E6E5E5"/>
<path d="M276.849 7.875H271.027C269.812 7.875 269.141 8.64938 269.141 9.86022V30.8597C269.141 32.0716 269.812 33.1426 271.027 33.1426H276.849C280.66 33.1426 283.8 31.8576 286.185 29.4063C288.562 26.9624 289.767 23.9093 289.767 20.3722C289.767 16.836 288.562 13.9027 286.186 11.463C283.802 9.0191 280.661 7.875 276.849 7.875ZM285.324 22.8235C285.17 23.5958 284.866 24.4305 284.42 25.3066C283.981 26.1657 283.4 26.9211 282.693 27.5524C281.987 28.1817 281.011 28.7368 279.791 29.1542C278.562 29.5779 277.109 29.8173 275.471 29.8173H274.16C273.536 29.8173 273.146 29.2591 273.146 28.6362V12.0827C273.146 11.4598 273.536 11.1992 274.16 11.1992H275.471C277.097 11.1992 278.549 11.2882 279.786 11.7046C281.012 12.1188 281.989 12.5849 282.691 13.2109C283.397 13.8402 283.979 14.5648 284.42 15.4239C284.868 16.3064 285.172 17.1284 285.325 17.8965C285.482 18.6836 285.56 19.5067 285.56 20.3584C285.559 21.2122 285.481 22.0396 285.324 22.8235Z" fill="#E6E5E5"/>
<path d="M261.125 33.569C262.284 33.569 263.127 32.6283 263.127 31.4726V17.7339C263.127 16.1904 262.975 14.7867 262.473 13.5642C261.97 12.3333 261.376 11.3375 260.604 10.6044C259.847 9.88618 258.984 9.28553 257.991 8.81942C257.009 8.36072 256.081 8.04715 255.206 7.88613C253.474 7.56833 251.817 7.56938 250.129 7.88825C249.277 8.04715 248.348 8.35966 247.359 8.81836C246.36 9.28024 245.469 9.87453 244.706 10.5843C243.934 11.3047 243.156 12.2951 242.65 13.5293C242.15 14.7528 241.766 16.1671 241.766 17.7339V31.4726C241.766 32.6283 242.943 33.569 244.102 33.569C245.261 33.569 246.438 32.6283 246.438 31.4726V16.8832C246.438 15.9266 246.541 15.1067 246.963 14.3778C247.382 13.6543 247.873 13.0791 248.526 12.6712C249.21 12.2432 249.899 11.9138 250.622 11.6924C251.338 11.4731 251.991 11.364 252.671 11.364C253.351 11.364 254.031 11.4731 254.752 11.6924C255.482 11.9138 256.198 12.2432 256.881 12.6712C257.534 13.0801 258.076 13.6575 258.495 14.3895C258.917 15.1247 259.12 15.9404 259.12 16.8843V31.4736C259.123 32.6283 259.966 33.569 261.125 33.569Z" fill="#E6E5E5"/>
<path d="M93.1274 7.14844C89.3658 7.14844 86.2071 8.45038 83.7387 11.0193C81.2788 13.5787 80.0312 16.7218 80.0312 20.3617C80.0312 24.0027 81.2788 27.1469 83.7387 29.7084C86.206 32.2773 89.3647 33.5792 93.1274 33.5792C96.8838 33.5792 100.098 32.2741 102.679 29.6999C105.258 27.1257 106.565 23.9836 106.565 20.3617C106.565 16.7409 105.257 13.6009 102.678 11.0257C100.099 8.45356 96.8848 7.14844 93.1274 7.14844ZM99.6808 27.0928C97.8856 28.9562 95.7394 29.863 93.12 29.863C90.5048 29.863 88.4214 28.9658 86.7474 27.1214C85.0596 25.2644 84.2396 23.0535 84.2396 20.3607C84.2396 17.672 85.0596 15.4622 86.7484 13.6041C88.4214 11.7598 90.5058 10.8636 93.121 10.8636C95.7394 10.8636 97.8856 11.7693 99.6819 13.6306C101.483 15.4993 102.36 17.7006 102.36 20.3607C102.359 23.026 101.482 25.2273 99.6808 27.0928Z" fill="#E6E5E5"/>
<path d="M149.199 22.7961L156.522 32.3716C156.869 32.8197 157.417 33.1354 157.985 33.1354H158.402C159.107 33.1354 159.739 32.6968 160.053 32.0675C160.366 31.4393 160.295 30.6766 159.869 30.1151L151.722 19.4231C151.501 19.1339 151.517 18.7186 151.76 18.4464L158.618 10.7025C159.104 10.1527 159.218 9.39637 158.916 8.73109C158.614 8.0637 157.971 7.64844 157.237 7.64844C156.706 7.64844 156.2 7.8762 155.85 8.27557L147.514 17.9432C147.099 18.4146 146.318 18.1964 146.318 17.4368V9.48429C146.318 8.47155 145.181 7.86878 144.164 7.86878H143.646C142.629 7.86878 141.645 8.47261 141.645 9.48429V31.2052C141.645 32.2169 142.629 33.1354 143.646 33.1354H144.164C145.181 33.1354 146.318 32.2169 146.318 31.2052V25.3131C146.318 25.1267 146.231 24.9466 146.355 24.8057L148.085 22.7548C148.232 22.5885 148.365 22.4942 148.586 22.4942C148.828 22.4942 149.051 22.6043 149.199 22.7961Z" fill="#E6E5E5"/>
<path d="M123.842 7.14844C120.081 7.14844 116.922 8.45038 114.454 11.0193C111.994 13.5787 110.746 16.7218 110.746 20.3617C110.746 24.0027 111.994 27.1469 114.454 29.7084C116.921 32.2773 120.08 33.5792 123.842 33.5792C127.599 33.5792 130.813 32.2741 133.394 29.6999C135.972 27.1257 137.279 23.9836 137.279 20.3617C137.279 16.7419 135.972 13.6009 133.393 11.0257C130.812 8.45356 127.599 7.14844 123.842 7.14844ZM130.396 27.0928C128.6 28.9562 126.454 29.863 123.835 29.863C121.22 29.863 119.136 28.9658 117.462 27.1214C115.773 25.2654 114.953 23.0535 114.953 20.3607C114.953 17.671 115.774 15.4612 117.463 13.6041C119.137 11.7598 121.221 10.8636 123.836 10.8636C126.453 10.8636 128.599 11.7693 130.397 13.6306C132.198 15.4993 133.074 17.7006 133.074 20.3607C133.073 23.026 132.196 25.2273 130.396 27.0928Z" fill="#E6E5E5"/>
<path d="M72.879 33.2989C74.0393 33.2989 74.8816 32.3592 74.8816 31.2045V9.99953C74.8816 8.84589 74.0393 7.90625 72.879 7.90625C71.7187 7.90625 70.8764 8.84483 70.8764 9.99953V17.5389C70.8764 18.1057 70.2947 18.5167 69.7267 18.5167H60.6496C60.0817 18.5167 59.5286 18.1057 59.5286 17.5389V9.99953C59.5286 8.84589 58.6853 7.90625 57.525 7.90625C56.3657 7.90625 55.5234 8.84483 55.5234 9.99953V31.2045C55.5234 32.3592 56.3657 33.2989 57.525 33.2989C58.6853 33.2989 59.5286 32.3592 59.5286 31.2045V23.6821C59.5286 23.1164 60.0817 22.5062 60.6496 22.5062H69.7267C70.2947 22.5062 70.8764 23.1164 70.8764 23.6821V31.2045C70.8764 32.3592 71.7187 33.2989 72.879 33.2989Z" fill="#E6E5E5"/>
</svg>
