<svg width="32" height="33" viewBox="0 0 32 33" fill="none" xmlns="http://www.w3.org/2000/svg">
<path d="M16 9.94578C18.1205 9.94578 18.4096 9.94578 19.2771 9.94578C20.0482 9.94578 20.4337 10.1386 20.7229 10.2349C21.1084 10.4277 21.3976 10.5241 21.6867 10.8133C21.9759 11.1024 22.1687 11.3916 22.2651 11.7771C22.3614 12.0663 22.4578 12.4518 22.5542 13.2229C22.5542 14.0904 22.5542 14.2831 22.5542 16.5C22.5542 18.7169 22.5542 18.9096 22.5542 19.7771C22.5542 20.5482 22.3614 20.9337 22.2651 21.2229C22.0723 21.6084 21.9759 21.8976 21.6867 22.1867C21.3976 22.4759 21.1084 22.6687 20.7229 22.7651C20.4337 22.8614 20.0482 22.9578 19.2771 23.0542C18.4096 23.0542 18.2169 23.0542 16 23.0542C13.7831 23.0542 13.5904 23.0542 12.7229 23.0542C11.9518 23.0542 11.5663 22.8614 11.2771 22.7651C10.8916 22.5723 10.6024 22.4759 10.3133 22.1867C10.0241 21.8976 9.83133 21.6084 9.73494 21.2229C9.63855 20.9337 9.54217 20.5482 9.44578 19.7771C9.44578 18.9096 9.44578 18.7169 9.44578 16.5C9.44578 14.2831 9.44578 14.0904 9.44578 13.2229C9.44578 12.4518 9.63855 12.0663 9.73494 11.7771C9.92771 11.3916 10.0241 11.1024 10.3133 10.8133C10.6024 10.5241 10.8916 10.3313 11.2771 10.2349C11.5663 10.1386 11.9518 10.0422 12.7229 9.94578C13.5904 9.94578 13.8795 9.94578 16 9.94578ZM16 8.5C13.7831 8.5 13.5904 8.5 12.7229 8.5C11.8554 8.5 11.2771 8.69277 10.7952 8.88554C10.3133 9.07831 9.83133 9.36747 9.3494 9.8494C8.86747 10.3313 8.6747 10.7169 8.38554 11.2952C8.19277 11.7771 8.09639 12.3554 8 13.2229C8 14.0904 8 14.3795 8 16.5C8 18.7169 8 18.9096 8 19.7771C8 20.6446 8.19277 21.2229 8.38554 21.7048C8.57831 22.1867 8.86747 22.6687 9.3494 23.1506C9.83133 23.6325 10.2169 23.8253 10.7952 24.1145C11.2771 24.3072 11.8554 24.4036 12.7229 24.5C13.5904 24.5 13.8795 24.5 16 24.5C18.1205 24.5 18.4096 24.5 19.2771 24.5C20.1446 24.5 20.7229 24.3072 21.2048 24.1145C21.6867 23.9217 22.1687 23.6325 22.6506 23.1506C23.1325 22.6687 23.3253 22.2831 23.6145 21.7048C23.8072 21.2229 23.9036 20.6446 24 19.7771C24 18.9096 24 18.6205 24 16.5C24 14.3795 24 14.0904 24 13.2229C24 12.3554 23.8072 11.7771 23.6145 11.2952C23.4217 10.8133 23.1325 10.3313 22.6506 9.8494C22.1687 9.36747 21.7831 9.1747 21.2048 8.88554C20.7229 8.69277 20.1446 8.59639 19.2771 8.5C18.4096 8.5 18.2169 8.5 16 8.5Z" fill="white"/>
<path d="M16 12.3554C13.6867 12.3554 11.8554 14.1867 11.8554 16.5C11.8554 18.8133 13.6867 20.6446 16 20.6446C18.3133 20.6446 20.1446 18.8133 20.1446 16.5C20.1446 14.1867 18.3133 12.3554 16 12.3554ZM16 19.1988C14.5542 19.1988 13.3012 18.0422 13.3012 16.5C13.3012 15.0542 14.4578 13.8012 16 13.8012C17.4458 13.8012 18.6988 14.9578 18.6988 16.5C18.6988 17.9458 17.4458 19.1988 16 19.1988Z" fill="white"/>
<path d="M20.241 13.2229C20.7733 13.2229 21.2048 12.7914 21.2048 12.259C21.2048 11.7267 20.7733 11.2952 20.241 11.2952C19.7086 11.2952 19.2771 11.7267 19.2771 12.259C19.2771 12.7914 19.7086 13.2229 20.241 13.2229Z" fill="white"/>
</svg>
