<svg width="32" height="33" viewBox="0 0 32 33" fill="none" xmlns="http://www.w3.org/2000/svg">
<path d="M25.5 10.3604C24.8452 10.8078 24.0764 11.0454 23.2907 11.0432C24.1308 10.5334 24.7597 9.72354 25.0581 8.76744C24.3618 9.37381 23.4843 9.71527 22.5727 9.73462C21.9716 9.10051 21.1871 8.68429 20.3369 8.54843C19.4867 8.41256 18.6167 8.56438 17.8574 8.9811C17.098 9.39782 16.4904 10.057 16.1256 10.8596C15.7609 11.6622 15.6586 12.5651 15.8343 13.4327C14.2874 13.3485 12.775 12.9302 11.3953 12.2049C10.0155 11.4796 8.79932 10.4635 7.82558 9.22258C7.34909 10.1107 7.20958 11.1494 7.43407 12.1374C7.65856 13.1254 8.23108 13.9924 9.0407 14.5705C8.42967 14.5794 7.82487 14.4431 7.27326 14.1723C7.28811 15.0887 7.60093 15.9735 8.16167 16.6852C8.72241 17.3969 9.49867 17.8943 10.3663 18.0979C9.78874 18.2532 9.18466 18.2727 8.59884 18.1548C8.85155 18.9666 9.34391 19.6771 10.0073 20.187C10.6706 20.6969 11.4719 20.9809 12.2994 20.9994C10.5517 22.0915 8.5441 22.6627 6.5 22.6493C8.21195 23.8005 10.2005 24.4398 12.2442 24.496C14.288 24.5521 16.3068 24.0229 18.0759 22.9673C19.8449 21.9117 21.2949 20.371 22.2644 18.5169C23.2338 16.6628 23.6847 14.5679 23.5669 12.4655C24.2957 11.8515 24.9453 11.1441 25.5 10.3604Z" fill="white"/>
</svg>
