<svg width="32" height="33" viewBox="0 0 32 33" fill="none" xmlns="http://www.w3.org/2000/svg">
<path d="M26.45 10.9286C26.175 9.92857 25.4875 9.21429 24.525 8.92857C22.875 8.5 15.8625 8.5 15.8625 8.5C15.8625 8.5 8.98751 8.5 7.20001 8.92857C6.23751 9.21429 5.55 9.92857 5.275 10.9286C5 12.7857 5 16.5 5 16.5C5 16.5 5 20.2143 5.4125 22.0714C5.6875 23.0714 6.375 23.7857 7.3375 24.0714C8.9875 24.5 16 24.5 16 24.5C16 24.5 22.875 24.5 24.6625 24.0714C25.625 23.7857 26.3125 23.0714 26.5875 22.0714C27 20.2143 27 16.5 27 16.5C27 16.5 27 12.7857 26.45 10.9286ZM13.8 19.9286V13.0714L19.575 16.5L13.8 19.9286Z" fill="white"/>
</svg>
