<svg width="16" height="16" viewBox="0 0 16 16" fill="none" xmlns="http://www.w3.org/2000/svg">
<path d="M16 11.9965C16 12.468 15.8127 12.9202 15.4793 13.2536C15.1459 13.587 14.6937 13.7743 14.2222 13.7743H1.77778C1.30628 13.7743 0.854097 13.587 0.520699 13.2536C0.187301 12.9202 0 12.468 0 11.9965V3.99653C0 3.52503 0.187301 3.07285 0.520699 2.73945C0.854097 2.40605 1.30628 2.21875 1.77778 2.21875H14.2222C14.6937 2.21875 15.1459 2.40605 15.4793 2.73945C15.8127 3.07285 16 3.52503 16 3.99653V11.9965Z" fill="#C60A1D"/>
<path d="M0 5.33594H16V10.6693H0V5.33594Z" fill="#FFC400"/>
<path d="M4 7.55469V8.88802C4 9.24164 4.14048 9.58078 4.39052 9.83083C4.64057 10.0809 4.97971 10.2214 5.33333 10.2214C5.68696 10.2214 6.02609 10.0809 6.27614 9.83083C6.52619 9.58078 6.66667 9.24164 6.66667 8.88802V7.55469H4Z" fill="#EA596E"/>
<path d="M5.33203 7.10938H6.66536V8.44271H5.33203V7.10938Z" fill="#F4A2B2"/>
<path d="M4 7.10938H5.33333V8.44271H4V7.10938Z" fill="#DD2E44"/>
<path d="M5.33333 7.11458C6.06971 7.11458 6.66667 6.81611 6.66667 6.44792C6.66667 6.07973 6.06971 5.78125 5.33333 5.78125C4.59695 5.78125 4 6.07973 4 6.44792C4 6.81611 4.59695 7.11458 5.33333 7.11458Z" fill="#EA596E"/>
<path d="M5.33333 6.44792C6.06971 6.44792 6.66667 6.29868 6.66667 6.11458C6.66667 5.93049 6.06971 5.78125 5.33333 5.78125C4.59695 5.78125 4 5.93049 4 6.11458C4 6.29868 4.59695 6.44792 5.33333 6.44792Z" fill="#FFAC33"/>
<path d="M3.10938 7.10938H3.55382V10.2205H3.10938V7.10938ZM7.10937 7.10938H7.55382V10.2205H7.10937V7.10938Z" fill="#99AAB5"/>
<path d="M2.66797 9.77517H4.0013V10.2196H2.66797V9.77517ZM6.66797 9.77517H8.0013V10.2196H6.66797V9.77517ZM3.11241 6.66406H3.55686V7.10851H3.11241V6.66406ZM7.11241 6.66406H7.55686V7.10851H7.11241V6.66406Z" fill="#66757F"/>
</svg>
