<svg width="16" height="16" viewBox="0 0 16 16" fill="none" xmlns="http://www.w3.org/2000/svg">
<mask id="mask0_21175_272252" style="mask-type:alpha" maskUnits="userSpaceOnUse" x="0" y="2" width="15" height="11">
<path d="M13.3346 2.66797H2.0013C1.26492 2.66797 0.667969 3.26492 0.667969 4.0013V11.3346C0.667969 12.071 1.26492 12.668 2.0013 12.668H13.3346C14.071 12.668 14.668 12.071 14.668 11.3346V4.0013C14.668 3.26492 14.071 2.66797 13.3346 2.66797Z" fill="white"/>
</mask>
<g mask="url(#mask0_21175_272252)">
<path d="M13.3346 2.66797H2.0013C1.26492 2.66797 0.667969 3.26492 0.667969 4.0013V11.3346C0.667969 12.071 1.26492 12.668 2.0013 12.668H13.3346C14.071 12.668 14.668 12.071 14.668 11.3346V4.0013C14.668 3.26492 14.071 2.66797 13.3346 2.66797Z" fill="white"/>
<path fill-rule="evenodd" clip-rule="evenodd" d="M0.667969 2.66797H6.66797V7.33464H0.667969V2.66797Z" fill="#444379"/>
<path fill-rule="evenodd" clip-rule="evenodd" d="M1.33203 3.33203V3.9987H1.9987V3.33203H1.33203ZM2.66536 3.33203V3.9987H3.33203V3.33203H2.66536ZM3.9987 3.33203V3.9987H4.66536V3.33203H3.9987ZM5.33203 3.33203V3.9987H5.9987V3.33203H5.33203ZM4.66536 3.9987V4.66536H5.33203V3.9987H4.66536ZM3.33203 3.9987V4.66536H3.9987V3.9987H3.33203ZM1.9987 3.9987V4.66536H2.66536V3.9987H1.9987ZM1.33203 4.66536V5.33203H1.9987V4.66536H1.33203ZM2.66536 4.66536V5.33203H3.33203V4.66536H2.66536ZM3.9987 4.66536V5.33203H4.66536V4.66536H3.9987ZM5.33203 4.66536V5.33203H5.9987V4.66536H5.33203ZM1.33203 5.9987V6.66536H1.9987V5.9987H1.33203ZM2.66536 5.9987V6.66536H3.33203V5.9987H2.66536ZM3.9987 5.9987V6.66536H4.66536V5.9987H3.9987ZM5.33203 5.9987V6.66536H5.9987V5.9987H5.33203ZM4.66536 5.33203V5.9987H5.33203V5.33203H4.66536ZM3.33203 5.33203V5.9987H3.9987V5.33203H3.33203ZM1.9987 5.33203V5.9987H2.66536V5.33203H1.9987Z" fill="#A7B6E7"/>
<path fill-rule="evenodd" clip-rule="evenodd" d="M6.66797 2.66797V3.33464H14.668V2.66797H6.66797ZM6.66797 4.0013V4.66797H14.668V4.0013H6.66797ZM6.66797 5.33464V6.0013H14.668V5.33464H6.66797ZM6.66797 6.66797V7.33464H14.668V6.66797H6.66797ZM0.667969 8.0013V8.66797H14.668V8.0013H0.667969ZM0.667969 9.33464V10.0013H14.668V9.33464H0.667969ZM0.667969 10.668V11.3346H14.668V10.668H0.667969ZM0.667969 12.0013V12.668H14.668V12.0013H0.667969Z" fill="#ED4C49"/>
</g>
</svg>
